<svg width="70" height="70" viewBox="0 0 70 70" fill="none" xmlns="http://www.w3.org/2000/svg">
<path d="M9.91211 25.6904C10.4784 25.6904 10.9375 25.2293 10.9375 24.663C10.9375 24.0967 10.4784 23.6376 9.91211 23.6376C9.34582 23.6376 8.88672 24.0967 8.88672 24.663V24.6669C8.88672 25.2332 9.34568 25.6904 9.91211 25.6904Z" fill="white"/>
<path d="M69.5665 14.2756C69.3721 14.0968 69.0252 13.8929 68.4677 13.94C67.4008 14.0369 66.4058 13.7395 65.6672 13.1044C64.9347 12.4742 64.4964 11.5452 64.4328 10.4886C64.4325 10.4839 64.4323 10.4792 64.4319 10.4744C64.4168 10.2703 64.3814 9.79207 63.961 9.46367C63.6817 9.24547 63.3302 9.17123 62.9091 9.24396L41.3885 13.1357C40.8312 13.2364 40.4611 13.7699 40.5619 14.3272C40.6626 14.8846 41.1972 15.2547 41.7534 15.1538L62.4836 11.4051C62.7266 12.6946 63.3665 13.8303 64.3299 14.6591C65.3242 15.5144 66.5908 15.982 67.9492 16.0081V24.8948C66.0193 24.4461 64.5546 22.7504 64.433 20.7028C64.4327 20.6978 64.4324 20.6929 64.432 20.688C64.3454 19.517 63.4658 19.3905 63.0916 19.3905H18.3322L37.1067 15.9939C37.664 15.893 38.0339 15.3595 37.9332 14.8023C37.8324 14.245 37.2985 13.8749 36.7417 13.9758L6.78699 19.3951C6.36809 19.4235 5.63063 19.6272 5.56705 20.7014C5.42814 22.9867 3.62004 24.8347 1.36254 25C0.703828 25.0473 0 25.4723 0 26.5227V53.6505C0 54.701 0.703828 55.126 1.36131 55.1733C3.62004 55.3387 5.42828 57.1867 5.56705 59.4703C5.63719 60.655 6.52572 60.783 6.90457 60.783H30.2661C30.8324 60.783 31.2915 60.3239 31.2915 59.7576C31.2915 59.1913 30.8324 58.7322 30.2661 58.7322H7.54797C7.10855 55.8946 4.87266 53.6359 2.05078 53.1903V26.9832C4.8717 26.5382 7.10773 24.28 7.54783 21.4413H62.4513C62.8878 24.28 65.1241 26.5393 67.9492 26.9838V42.5229V53.1897C65.1245 53.6335 62.8879 55.8929 62.4513 58.7323H34.9981C34.4318 58.7323 33.9727 59.1914 33.9727 59.7577C33.9727 60.324 34.4318 60.7831 34.9981 60.7831H63.0916C63.4658 60.7831 64.3454 60.6566 64.432 59.4856C64.4324 59.4807 64.4327 59.4758 64.433 59.4709C64.5686 57.1867 66.375 55.3392 68.6335 55.1737C69.2941 55.1261 70 54.7012 70 53.6509V15.3951C70 15.2168 70 14.6743 69.5665 14.2756Z" fill="white"/>
<path d="M8.88672 55.5105C8.88672 56.0767 9.34582 56.5359 9.91211 56.5359C10.4784 56.5359 10.9375 56.0767 10.9375 55.5105V55.5066C10.9375 54.9403 10.4784 54.4832 9.91211 54.4832C9.34582 54.4832 8.88672 54.9442 8.88672 55.5105Z" fill="white"/>
<path d="M60.0845 54.4832C59.5182 54.4832 59.0591 54.9442 59.0591 55.5105C59.0591 56.0767 59.5182 56.5359 60.0845 56.5359C60.6508 56.5359 61.1099 56.0767 61.1099 55.5105V55.5066C61.1099 54.9402 60.6508 54.4832 60.0845 54.4832Z" fill="white"/>
<path d="M61.1099 24.663C61.1099 24.0967 60.6508 23.6376 60.0845 23.6376C59.5182 23.6376 59.0591 24.0967 59.0591 24.663V24.6669C59.0591 25.2332 59.5182 25.6904 60.0845 25.6904C60.6508 25.6904 61.1099 25.2293 61.1099 24.663Z" fill="white"/>
<path d="M33.9727 35.4664V44.707C33.9727 45.2733 34.4318 45.7324 34.998 45.7324C35.5643 45.7324 36.0234 45.2733 36.0234 44.707V35.4664C36.0234 34.9001 35.5643 34.441 34.998 34.441C34.4318 34.441 33.9727 34.9001 33.9727 35.4664Z" fill="white"/>
<path d="M29.4591 35.1648L27.228 41.9332L24.8878 35.1326C24.7035 34.5971 24.1198 34.3123 23.5846 34.4967C23.049 34.681 22.7644 35.2645 22.9487 35.7999L26.0823 44.9059C26.2559 45.4002 26.722 45.7302 27.2444 45.7302H27.2557C27.7832 45.7253 28.2489 45.3854 28.415 44.8832L31.4069 35.8067C31.5842 35.2689 31.2919 34.6892 30.7541 34.5119C30.2164 34.335 29.6364 34.627 29.4591 35.1648Z" fill="white"/>
<path d="M40.1367 34.441C39.5788 34.441 39.1113 34.9085 39.1113 35.4664V44.707C39.1113 45.2733 39.5704 45.7324 40.1367 45.7324C40.703 45.7324 41.1621 45.2733 41.1621 44.707V41.7138C41.7047 41.7109 42.3342 41.708 42.6868 41.708C44.7053 41.708 46.3474 40.0789 46.3474 38.0765C46.3474 36.072 44.7053 34.4412 42.6868 34.4412H40.1367V34.441ZM44.2968 38.0765C44.2968 38.9333 43.5595 39.6573 42.6869 39.6573C42.3363 39.6573 41.7132 39.6601 41.172 39.663C41.1691 39.0979 41.1661 38.4392 41.1661 38.0765C41.1661 37.7681 41.1651 37.083 41.164 36.492H42.6869C43.5595 36.4918 44.2968 37.2175 44.2968 38.0765Z" fill="white"/>
<path d="M9.84229 32.1821H60.2084C60.7747 32.1821 61.2338 31.723 61.2338 31.1567C61.2338 30.5904 60.7747 30.1313 60.2084 30.1313H9.84229C9.276 30.1313 8.81689 30.5904 8.81689 31.1567C8.81689 31.723 9.276 32.1821 9.84229 32.1821Z" fill="white"/>
<path d="M61.2338 49.0167C61.2338 48.4504 60.7747 47.9913 60.2084 47.9913H9.84229C9.276 47.9913 8.81689 48.4504 8.81689 49.0167C8.81689 49.583 9.276 50.0421 9.84229 50.0421H60.2084C60.7747 50.0421 61.2338 49.583 61.2338 49.0167Z" fill="white"/>
<path d="M61.3956 38.7947C61.3234 38.5701 61.1123 38.1654 60.5092 37.9792L58.4419 37.3448L57.203 35.5586C56.8433 35.0392 56.3929 34.9617 56.1565 34.9617C55.9201 34.9617 55.4698 35.0392 55.1105 35.5579L53.8711 37.3448L51.802 37.9797C51.2007 38.1654 50.9898 38.5701 50.9176 38.7947C50.8454 39.0192 50.7809 39.4702 51.1569 39.9657L52.4639 41.707L52.4205 43.8977C52.4108 44.5253 52.7283 44.8509 52.9186 44.9892C53.1086 45.1274 53.5166 45.3291 54.118 45.1236L56.155 44.41L58.1981 45.1247C58.3798 45.1877 58.5443 45.2124 58.6905 45.2124C59.02 45.2124 59.2566 45.0868 59.3887 44.9911C59.5797 44.853 59.8987 44.5272 59.8889 43.8949L59.8489 41.7075L61.1535 39.9697C61.5322 39.4702 61.4678 39.0191 61.3956 38.7947ZM57.9972 40.7584C57.86 40.9411 57.7879 41.1643 57.7921 41.3928L57.8182 42.8192L56.4934 42.3558C56.2741 42.279 56.0351 42.2791 55.8158 42.356L54.4932 42.8193L54.5215 41.3943C54.526 41.1654 54.4538 40.9415 54.3164 40.7584L53.4592 39.6164L54.8126 39.201C55.0324 39.1336 55.2233 38.9942 55.3543 38.8051L56.1569 37.6479L56.9596 38.8051C57.0906 38.9941 57.2814 39.1335 57.5013 39.201L58.8545 39.6164L57.9972 40.7584Z" fill="white"/>
<path d="M8.84404 39.9657L10.1511 41.707L10.1076 43.8978C10.0979 44.5272 10.4169 44.853 10.6078 44.9911C10.7986 45.1289 11.2065 45.33 11.8009 45.1239L13.8419 44.4099L15.8853 45.1247C16.067 45.1877 16.2315 45.2124 16.3777 45.2124C16.7072 45.2124 16.9437 45.0868 17.0759 44.9912C17.2669 44.8532 17.5858 44.5273 17.5761 43.8949L17.5362 41.707L18.8368 39.9697C19.2169 39.4686 19.1526 39.0173 19.0805 38.793C19.0083 38.5686 18.7979 38.1649 18.1962 37.9789L16.126 37.3447L14.8907 35.5589C14.8906 35.5587 14.8906 35.5586 14.8904 35.5585C14.5307 35.0391 14.0792 34.9615 13.8421 34.9615C13.605 34.9615 13.1533 35.0391 12.7933 35.5589L11.558 37.3447L9.48101 37.981C8.88451 38.1683 8.67546 38.5722 8.60396 38.7962C8.53218 39.0206 8.46875 39.4711 8.84404 39.9657ZM12.4989 39.2013C12.7195 39.1338 12.9107 38.9939 13.0419 38.8043L13.8418 37.6479L14.6416 38.8043C14.7727 38.9939 14.9641 39.1338 15.1847 39.2013L16.5394 39.6164L15.6835 40.7595C15.547 40.942 15.475 41.1649 15.4791 41.3928L15.5053 42.8192L14.1805 42.3558C14.0708 42.3176 13.9564 42.2984 13.8419 42.2984C13.7275 42.2984 13.6131 42.3176 13.5034 42.3558L12.1802 42.8186L12.2085 41.3944C12.2131 41.1654 12.1409 40.9416 12.0035 40.7586L11.1458 39.616L12.4989 39.2013Z" fill="white"/>
</svg>
