<svg width="36" height="36" viewBox="0 0 36 36" fill="none" xmlns="http://www.w3.org/2000/svg">
<g clip-path="url(#clip0)">
<path d="M18.0004 0C8.0597 0 0.000976562 8.05896 0.000976562 17.9996C0.000976562 27.9401 8.0597 35.9996 18.0004 35.9996C27.9411 35.9996 36.0004 27.9401 36.0004 17.9996C36.0004 8.05896 27.9411 0 18.0004 0ZM18.0007 6.32232L28.6523 12.9643H7.34918L18.0007 6.32232ZM28.785 23.5708H28.7839C28.7839 24.6361 27.9205 25.4994 26.8553 25.4994H9.14618C8.08082 25.4994 7.21754 24.636 7.21754 23.5708V13.387C7.21754 13.2743 7.22906 13.1647 7.24778 13.0571L17.4247 19.403C17.4372 19.4108 17.4505 19.4161 17.4634 19.4233C17.4768 19.4308 17.4905 19.438 17.5042 19.4448C17.5761 19.4819 17.6501 19.5118 17.7258 19.5313C17.7336 19.5335 17.7414 19.5344 17.7492 19.5362C17.8323 19.5558 17.9164 19.568 18.0004 19.568H18.001C18.0016 19.568 18.0022 19.568 18.0022 19.568C18.0862 19.568 18.1703 19.5562 18.2533 19.5362C18.2611 19.5343 18.2689 19.5335 18.2767 19.5313C18.3523 19.5118 18.4261 19.4819 18.4984 19.4448C18.5121 19.438 18.5257 19.4308 18.5392 19.4233C18.5519 19.4161 18.5653 19.4108 18.5778 19.403L28.7548 13.0571C28.7735 13.1647 28.785 13.274 28.785 13.387V23.5708Z" fill="white"/>
</g>
<defs>
<clipPath id="clip0">
<rect width="36" height="36" fill="white"/>
</clipPath>
</defs>
</svg>
