<svg width="70" height="70" viewBox="0 0 70 70" fill="none" xmlns="http://www.w3.org/2000/svg">
<path d="M67.492 37.508L53.9142 23.9302C53.6103 23.6242 53.2485 23.3818 52.8501 23.2168C52.4517 23.0516 52.0245 22.9674 51.5933 22.9688H33.9062C33.3022 22.9688 32.8125 23.4585 32.8125 24.0625C32.8125 24.6665 33.3022 25.1563 33.9062 25.1563H38.2812V40.4688C38.2812 41.0728 38.771 41.5625 39.375 41.5625C39.979 41.5625 40.4688 41.0728 40.4688 40.4688V25.1563H51.5933C51.7371 25.1561 51.8796 25.1844 52.0123 25.2394C52.1452 25.2944 52.2659 25.375 52.3677 25.4767L54.2347 27.3438H49.2188C48.6387 27.3438 48.0822 27.5743 47.6719 27.9844C47.2618 28.3947 47.0312 28.9512 47.0312 29.5313V39.375C47.0312 39.9551 47.2618 40.5116 47.6719 40.9219C48.0822 41.332 48.6387 41.5625 49.2188 41.5625H65.625V50.3125C65.625 50.6026 65.5097 50.8809 65.3047 51.0859C65.0996 51.291 64.8214 51.4063 64.5312 51.4063H62.2562C61.9947 49.5853 61.0855 47.9197 59.6952 46.7149C58.3051 45.5101 56.5272 44.8469 54.6875 44.8469C52.8478 44.8469 51.0699 45.5101 49.6798 46.7149C48.2895 47.9197 47.3803 49.5853 47.1188 51.4063H31.6313C31.3697 49.5853 30.4605 47.9197 29.0702 46.7149C27.6801 45.5101 25.9022 44.8469 24.0625 44.8469C22.2228 44.8469 20.4449 45.5101 19.0548 46.7149C17.6645 47.9197 16.7553 49.5853 16.4937 51.4063H14.2188C13.9286 51.4063 13.6505 51.291 13.4453 51.0859C13.2402 50.8809 13.125 50.6026 13.125 50.3125V41.5625C13.125 40.9585 12.6353 40.4688 12.0312 40.4688C11.4272 40.4688 10.9375 40.9585 10.9375 41.5625V50.3125C10.9375 51.1827 11.2832 52.0174 11.8986 52.6328C12.5139 53.248 13.3485 53.5938 14.2188 53.5938H16.4937C16.7325 55.2568 17.5133 56.7948 18.7152 57.9688H3.28125C2.67719 57.9688 2.1875 58.4585 2.1875 59.0625C2.1875 59.6665 2.67719 60.1563 3.28125 60.1563H54.6875C56.5266 60.1527 58.3032 59.4879 59.6928 58.2831C61.0822 57.0783 61.9921 55.4139 62.2562 53.5938H64.5312C65.4015 53.5938 66.2361 53.248 66.8515 52.6328C67.4667 52.0174 67.8125 51.1827 67.8125 50.3125V38.2813C67.8125 37.9911 67.6971 37.7131 67.492 37.508ZM18.5938 52.5C18.5938 51.4184 18.9145 50.3611 19.5154 49.4617C20.1162 48.5624 20.9705 47.8614 21.9697 47.4476C22.969 47.0336 24.0685 46.9253 25.1295 47.1364C26.1903 47.3474 27.1646 47.8683 27.9295 48.6331C28.6943 49.3979 29.2152 50.3723 29.4261 51.4331C29.6372 52.494 29.5289 53.5935 29.1149 54.5928C28.7011 55.592 28.0001 56.4463 27.1008 57.0471C26.2015 57.648 25.1441 57.9688 24.0625 57.9688C22.6126 57.967 21.2226 57.3903 20.1975 56.3651C19.1722 55.3399 18.5955 53.9499 18.5938 52.5ZM29.4098 57.9688C30.6117 56.7948 31.3925 55.2568 31.6313 53.5938H47.1188C47.3575 55.2568 48.1383 56.7948 49.3402 57.9688H29.4098ZM54.6875 57.9688C53.6059 57.9688 52.5485 57.648 51.6492 57.0471C50.7499 56.4463 50.0489 55.592 49.6351 54.5928C49.2211 53.5935 49.1128 52.494 49.3239 51.4331C49.5348 50.3723 50.0557 49.3979 50.8205 48.6331C51.5854 47.8683 52.5597 47.3474 53.6205 47.1364C54.6815 46.9253 55.781 47.0336 56.7803 47.4476C57.7795 47.8614 58.6338 48.5624 59.2346 49.4617C59.8355 50.3611 60.1562 51.4184 60.1562 52.5C60.1545 53.9499 59.5778 55.3399 58.5525 56.3651C57.5274 57.3903 56.1374 57.967 54.6875 57.9688ZM49.2188 39.375V29.5313H56.4222L65.625 38.7341V39.375H49.2188Z" fill="white"/>
<path d="M22.9688 52.5C22.9688 53.104 23.4585 53.5938 24.0625 53.5938C24.6665 53.5938 25.1562 53.104 25.1562 52.5C25.1562 51.896 24.6665 51.4062 24.0625 51.4062C23.4585 51.4062 22.9688 51.896 22.9688 52.5Z" fill="white"/>
<path d="M53.5938 52.5C53.5938 53.104 54.0835 53.5938 54.6875 53.5938C55.2915 53.5938 55.7812 53.104 55.7812 52.5C55.7812 51.896 55.2915 51.4062 54.6875 51.4062C54.0835 51.4062 53.5938 51.896 53.5938 52.5Z" fill="white"/>
<path d="M6.83594 48.125H3.00781C2.55477 48.125 2.1875 48.4922 2.1875 48.9453V49.4922C2.1875 49.9453 2.55477 50.3125 3.00781 50.3125H6.83594C7.28898 50.3125 7.65625 49.9453 7.65625 49.4922V48.9453C7.65625 48.4922 7.28898 48.125 6.83594 48.125Z" fill="white"/>
<path d="M6.83594 43.75H5.19531C4.74227 43.75 4.375 44.1172 4.375 44.5703V45.1172C4.375 45.5703 4.74227 45.9375 5.19531 45.9375H6.83594C7.28898 45.9375 7.65625 45.5703 7.65625 45.1172V44.5703C7.65625 44.1172 7.28898 43.75 6.83594 43.75Z" fill="white"/>
<path d="M6.83594 39.375H6.28906C5.83602 39.375 5.46875 39.7422 5.46875 40.1953V40.7422C5.46875 41.1953 5.83602 41.5625 6.28906 41.5625H6.83594C7.28898 41.5625 7.65625 41.1953 7.65625 40.7422V40.1953C7.65625 39.7422 7.28898 39.375 6.83594 39.375Z" fill="white"/>
<path d="M16.4062 38.2812C19.2184 38.2812 21.9676 37.4473 24.3057 35.885C26.644 34.3226 28.4665 32.102 29.5426 29.5038C30.6188 26.9057 30.9005 24.0468 30.3518 21.2886C29.8032 18.5305 28.449 15.9969 26.4604 14.0083C24.4718 12.0198 21.9383 10.6656 19.1801 10.117C16.422 9.56834 13.5631 9.84991 10.965 10.9261C8.36683 12.0023 6.14616 13.8247 4.5838 16.163C3.02142 18.5012 2.1875 21.2503 2.1875 24.0625C2.19185 27.8322 3.69128 31.4463 6.35687 34.1119C9.02247 36.7775 12.6365 38.2769 16.4062 38.2812ZM16.4062 12.0313C18.7858 12.0313 21.112 12.7369 23.0904 14.0589C25.069 15.3809 26.6111 17.2599 27.5216 19.4584C28.4323 21.6568 28.6706 24.0759 28.2063 26.4097C27.7421 28.7435 26.5962 30.8872 24.9136 32.5698C23.231 34.2524 21.0872 35.3984 18.7534 35.8626C16.4196 36.3268 14.0005 36.0885 11.8021 35.1779C9.60367 34.2673 7.72464 32.7253 6.40263 30.7467C5.08062 28.7682 4.375 26.4421 4.375 24.0625C4.37876 20.8727 5.64755 17.8147 7.90303 15.5593C10.1585 13.3038 13.2165 12.035 16.4062 12.0313Z" fill="white"/>
<path d="M16.4062 33.9062C16.6964 33.9062 16.9745 33.7909 17.1795 33.5858C17.8839 32.8814 24.0625 26.5672 24.0625 21.875C24.0625 19.8445 23.2559 17.897 21.82 16.4612C20.3842 15.0254 18.4368 14.2188 16.4062 14.2188C14.3757 14.2188 12.4283 15.0254 10.9925 16.4612C9.55664 17.897 8.75 19.8445 8.75 21.875C8.75 26.5672 14.9286 32.8814 15.633 33.5858C15.838 33.7909 16.1161 33.9062 16.4062 33.9062ZM16.4062 16.4062C17.8562 16.408 19.2462 16.9847 20.2713 18.01C21.2965 19.0351 21.8732 20.4251 21.875 21.875C21.875 24.6816 18.433 29.0183 16.4062 31.2277C14.3795 29.0183 10.9375 24.6816 10.9375 21.875C10.9392 20.4251 11.516 19.0351 12.5412 18.01C13.5664 16.9847 14.9563 16.408 16.4062 16.4062Z" fill="white"/>
<path d="M19.6875 21.875C19.6875 21.226 19.495 20.5916 19.1345 20.052C18.7739 19.5125 18.2615 19.0918 17.6619 18.8436C17.0624 18.5951 16.4026 18.5302 15.7661 18.6568C15.1296 18.7834 14.545 19.0959 14.086 19.5548C13.6272 20.0137 13.3147 20.5983 13.1881 21.2349C13.0614 21.8713 13.1264 22.5311 13.3748 23.1307C13.6231 23.7303 14.0438 24.2427 14.5832 24.6033C15.1229 24.9638 15.7572 25.1563 16.4062 25.1563C17.2765 25.1563 18.1111 24.8105 18.7265 24.1953C19.3417 23.5799 19.6875 22.7452 19.6875 21.875ZM15.3125 21.875C15.3125 21.6587 15.3766 21.4472 15.4968 21.2673C15.617 21.0875 15.7879 20.9473 15.9878 20.8645C16.1875 20.7817 16.4075 20.7601 16.6197 20.8023C16.8319 20.8444 17.0267 20.9486 17.1797 21.1016C17.3327 21.2546 17.4368 21.4494 17.4789 21.6616C17.5212 21.8738 17.4996 22.0938 17.4167 22.2935C17.334 22.4934 17.1937 22.6643 17.014 22.7845C16.834 22.9047 16.6225 22.9688 16.4062 22.9688C16.1161 22.9688 15.8379 22.8535 15.6328 22.6484C15.4278 22.4434 15.3125 22.1651 15.3125 21.875Z" fill="white"/>
<path d="M48.125 43.75H43.75V45.9375H48.125V43.75Z" fill="white"/>
</svg>
