<svg width="70" height="70" viewBox="0 0 70 70" fill="none" xmlns="http://www.w3.org/2000/svg">
<g clip-path="url(#clip0)">
<path d="M52.2089 30.5195C52.7643 30.6327 53.3057 30.2746 53.4193 29.718C53.6728 28.4758 53.8012 27.1976 53.8012 25.9184C53.8012 15.5202 45.367 7.06042 35 7.06042C24.6329 7.06042 16.1987 15.5202 16.1987 25.9184C16.1987 36.3166 24.6329 44.7764 35 44.7764C42.0662 44.7764 48.4713 40.8614 51.7157 34.5593C51.9756 34.0544 51.7783 33.4339 51.275 33.1732C50.7719 32.9125 50.1531 33.1106 49.8933 33.6152C47.0024 39.2307 41.2958 42.719 35.0002 42.719C25.764 42.719 18.2499 35.1823 18.2499 25.9182C18.2499 16.6543 25.764 9.11748 35.0002 9.11748C44.2362 9.11748 51.7502 16.6543 51.7502 25.9182C51.7502 27.0591 51.6358 28.1987 51.41 29.3054C51.2963 29.862 51.6541 30.4056 52.2089 30.5195Z" fill="white"/>
<path d="M46.4102 22.0928C46.2894 21.7197 45.9674 21.448 45.5804 21.3924L38.8967 20.432L35.9208 14.353C35.5809 13.5974 34.4193 13.5976 34.0796 14.353L31.1036 20.4319L24.42 21.3922C23.5976 21.4831 23.2404 22.5916 23.851 23.1484L28.6955 27.8657L27.5406 34.5383C27.3727 35.3482 28.311 36.0349 29.03 35.6238L35.0001 32.4601L40.9702 35.6238C41.6881 36.0349 42.6279 35.3482 42.4596 34.5383L41.3048 27.8657L46.1493 23.1484C46.4299 22.8753 46.5311 22.4657 46.4102 22.0928ZM39.4874 26.7684C39.2441 27.0052 39.1334 27.3473 39.1912 27.6824L40.0815 32.8263L35.479 30.3874C35.1793 30.2286 34.8207 30.2286 34.521 30.3874L29.9185 32.8263L30.8089 27.6824C30.8668 27.3473 30.7559 27.0052 30.5127 26.7684L26.778 23.1317L31.9306 22.3912C32.2661 22.343 32.5564 22.1317 32.7058 21.8264L35 17.14L37.2941 21.8264C37.4435 22.1316 37.7338 22.343 38.0693 22.3912L43.222 23.1317L39.4874 26.7684Z" fill="white"/>
<path d="M63.779 61.1421L53.7554 43.7284C58.1445 39.0811 60.8405 32.8098 60.8405 25.9182C60.8403 11.6268 49.2485 0 35.0001 0C30.6162 0 26.2852 1.12138 22.475 3.24298C21.9798 3.51877 21.8011 4.14489 22.0762 4.64166C22.351 5.13814 22.9753 5.31727 23.4704 5.04175C26.9767 3.08928 30.9636 2.05733 35.0001 2.05733C48.1176 2.05733 58.7893 12.7615 58.7893 25.9183C58.7893 39.0755 48.1176 49.7796 35.0001 49.7796C21.8825 49.7796 11.2108 39.0754 11.2108 25.9182C11.2108 18.8599 14.302 12.2024 19.692 7.65286C20.1253 7.2871 20.181 6.63815 19.8162 6.20359C19.4516 5.7689 18.8048 5.71285 18.3714 6.07888C12.5173 11.0201 9.15974 18.2513 9.15974 25.9182C9.15974 32.8215 11.8648 39.1027 16.267 43.7525L13.4283 48.6842C12.748 49.8259 14.548 50.8815 15.2044 49.7129L17.7851 45.2297C20.8724 48.0014 24.6256 50.0407 28.7712 51.0737L19.9218 66.4476L17.658 59.3016C17.4976 58.7949 16.9786 58.4947 16.4609 58.6083L9.15906 60.215L12.8113 53.8701C13.0945 53.378 12.9264 52.749 12.4359 52.4649C11.9453 52.1809 11.3183 52.3493 11.0351 52.8414L6.22088 61.205C5.76417 61.9396 6.48942 62.9379 7.32871 62.7241L15.9865 60.8189L18.6704 69.2919C18.9051 70.1255 20.1262 70.2613 20.5359 69.4948L30.8895 51.5076C32.2284 51.7232 33.6009 51.8368 34.9997 51.8368C36.4098 51.8368 37.7932 51.7211 39.1428 51.5021L45.3612 62.3052C45.5511 62.6352 45.8957 62.8195 46.2501 62.8195C46.4242 62.8195 46.6005 62.7751 46.762 62.6816C47.2524 62.3975 47.4204 61.7684 47.1373 61.2765L41.2602 51.066C45.404 50.0277 49.1544 47.9839 52.2384 45.2084L60.8403 60.1523L53.5385 58.5456C53.0208 58.4317 52.5019 58.7322 52.3413 59.2389L50.0777 66.3849L49.5301 65.4337C49.247 64.9417 48.6199 64.7732 48.1293 65.0572C47.6389 65.3414 47.4709 65.9704 47.754 66.4624L49.4633 69.4321C49.8733 70.1988 51.0942 70.0628 51.3288 69.2293L54.0129 60.7563L62.6706 62.6615C63.5107 62.8745 64.2353 61.8769 63.779 61.1421Z" fill="white"/>
<path d="M20.5078 54.0723C20.5078 53.506 20.0487 53.0469 19.4824 53.0469C18.9161 53.0469 18.457 53.506 18.457 54.0723V54.0762C18.457 54.6425 18.9161 55.0997 19.4824 55.0997C20.0487 55.0997 20.5078 54.6386 20.5078 54.0723Z" fill="white"/>
<path d="M51.4062 54.0723C51.4062 53.506 50.9471 53.0469 50.3809 53.0469C49.8146 53.0469 49.3555 53.506 49.3555 54.0723V54.0762C49.3555 54.6425 49.8146 55.0997 50.3809 55.0997C50.9471 55.0997 51.4062 54.6386 51.4062 54.0723Z" fill="white"/>
</g>
<defs>
<clipPath id="clip0">
<rect width="70" height="70" fill="white"/>
</clipPath>
</defs>
</svg>
