<svg width="36" height="36" viewBox="0 0 36 36" fill="none" xmlns="http://www.w3.org/2000/svg">
<g clip-path="url(#clip0)">
<path d="M18.0525 16.8637C20.0379 16.8637 21.6474 15.2542 21.6474 13.2688C21.6474 11.2833 20.0379 9.67383 18.0525 9.67383C16.0671 9.67383 14.4575 11.2833 14.4575 13.2688C14.4575 15.2542 16.0671 16.8637 18.0525 16.8637Z" fill="white"/>
<path d="M18.0004 0C8.0597 0 0.000976562 8.05896 0.000976562 17.9996C0.000976562 27.9401 8.0597 35.9996 18.0004 35.9996C27.9411 35.9996 36.0004 27.9401 36.0004 17.9996C36.0004 8.05896 27.9411 0 18.0004 0ZM17.9631 8.24136C17.9758 8.24136 17.9883 8.24076 18.0007 8.24016C18.0132 8.24076 18.0256 8.24136 18.0384 8.24136C21.0713 8.28924 23.5385 10.7959 23.5385 13.8295C23.5385 17.5385 19.5756 21.2941 18.0007 22.6398C17.8955 22.5498 17.7789 22.4484 17.6541 22.3373C17.6519 22.3354 17.65 22.3338 17.6482 22.332C15.9053 20.7833 12.4631 17.2866 12.4631 13.8295C12.463 10.7959 14.9304 8.28936 17.9631 8.24136ZM18.0789 27.87C14.7593 27.87 11.3986 26.9177 11.3986 25.0982C11.3986 23.8213 13.0534 22.9722 15.1869 22.5788C15.5995 22.9937 15.9901 23.3594 16.3329 23.6647C14.0089 23.9243 12.6436 24.66 12.6436 25.0979C12.6436 25.636 14.707 26.6248 18.0789 26.6248C21.4507 26.6248 23.5145 25.636 23.5145 25.0979C23.5145 24.651 22.0915 23.8968 19.6833 23.6516C20.029 23.3429 20.4227 22.9738 20.8385 22.5546C23.0361 22.9372 24.7594 23.7948 24.7594 25.0982C24.7594 26.9177 21.3987 27.87 18.0789 27.87Z" fill="white"/>
</g>
<defs>
<clipPath id="clip0">
<rect width="36" height="36" fill="white"/>
</clipPath>
</defs>
</svg>
