<svg width="36" height="36" viewBox="0 0 36 36" fill="none" xmlns="http://www.w3.org/2000/svg">
<g clip-path="url(#clip0)">
<path d="M17.9999 28.5364C18.7765 28.5364 19.4061 27.9069 19.4061 27.1303C19.4061 26.3536 18.7765 25.7241 17.9999 25.7241C17.2233 25.7241 16.5938 26.3536 16.5938 27.1303C16.5938 27.9069 17.2233 28.5364 17.9999 28.5364Z" fill="white"/>
<path d="M21.6792 8.69775H14.3208C13.9084 8.69775 13.5728 9.01771 13.5728 9.41027V23.3197C13.5728 23.7126 13.9082 24.0323 14.3208 24.0323H21.6792C22.0917 24.0323 22.4273 23.7122 22.4273 23.3197V9.41027C22.4271 9.01737 22.0917 8.69775 21.6792 8.69775Z" fill="white"/>
<path d="M18.0004 0C8.0597 0 0.000976562 8.05932 0.000976562 17.9996C0.000976562 27.94 8.0597 36 18.0004 36C27.9411 36 36.0007 27.9404 36.0007 17.9996C36.0007 8.05884 27.9411 0 18.0004 0ZM25.0033 26.8825C25.0033 28.2575 23.8885 29.3724 22.5135 29.3724H13.4878C12.1128 29.3724 10.9979 28.2576 10.9979 26.8825V9.03876C10.9979 7.6638 12.1127 6.54888 13.4878 6.54888H22.5135C23.8884 6.54888 25.0033 7.66368 25.0033 9.03876V26.8825Z" fill="white"/>
</g>
<defs>
<clipPath id="clip0">
<rect width="36" height="36" fill="white"/>
</clipPath>
</defs>
</svg>
