<svg width="36" height="36" viewBox="0 0 36 36" fill="none" xmlns="http://www.w3.org/2000/svg">
<path d="M18 36C27.9411 36 36 27.9411 36 18C36 8.05888 27.9411 0 18 0C8.05888 0 0 8.05888 0 18C0 27.9411 8.05888 36 18 36Z" fill="#6F3FAA"/>
<path d="M27.5224 12.6507L27.5165 12.6269C27.0356 10.6826 24.8673 8.59625 22.876 8.16221L22.8536 8.15757C19.6329 7.54318 16.3671 7.54318 13.1471 8.15757L13.1239 8.16221C11.1334 8.59625 8.96506 10.6827 8.48349 12.6269L8.47815 12.6507C7.88359 15.3659 7.88359 18.1196 8.47815 20.8349L8.48349 20.8587C8.94461 22.72 10.9514 24.7105 12.8683 25.258V27.4283C12.8683 28.2139 13.8256 28.5998 14.37 28.0328L16.5691 25.747C17.046 25.7737 17.5233 25.7886 18.0003 25.7886C19.6215 25.7886 21.2435 25.6352 22.8535 25.3281L22.8759 25.3235C24.8671 24.8894 27.0354 22.803 27.5164 20.8588L27.5224 20.835C28.1169 18.1196 28.1169 15.366 27.5224 12.6507ZM25.782 20.4412C25.461 21.7097 23.8146 23.2868 22.5065 23.5781C20.7941 23.9038 19.068 24.0429 17.3436 23.9952C17.3093 23.9942 17.2764 24.0076 17.2526 24.0321C17.0078 24.2833 15.647 25.6805 15.647 25.6805L13.9392 27.4332C13.8143 27.5634 13.595 27.4747 13.595 27.2951V23.6996C13.595 23.6402 13.5525 23.5898 13.4942 23.5782C13.4938 23.5781 13.4936 23.5781 13.4932 23.5781C12.1851 23.2866 10.5394 21.7097 10.2177 20.4412C9.68254 17.9868 9.68254 15.4988 10.2177 13.0445C10.5394 11.7759 12.1851 10.199 13.4932 9.90757C16.484 9.33875 19.5164 9.33875 22.5066 9.90757C23.8153 10.199 25.4611 11.7759 25.7822 13.0445C26.3179 15.4988 26.3179 17.9869 25.782 20.4412Z" fill="white"/>
<path d="M20.8454 22.1011C20.6443 22.0399 20.4527 21.9989 20.2745 21.9252C18.4302 21.1599 16.7329 20.1728 15.3884 18.6596C14.6239 17.7991 14.0254 16.8276 13.5196 15.7995C13.2797 15.312 13.0775 14.8053 12.8715 14.3019C12.6835 13.8429 12.9603 13.3687 13.2517 13.0227C13.5251 12.6981 13.877 12.4498 14.2581 12.2666C14.5555 12.1237 14.8489 12.2062 15.0661 12.4582C15.5357 13.0033 15.9671 13.5762 16.3164 14.208C16.5311 14.5966 16.4722 15.0717 16.0829 15.3361C15.9882 15.4004 15.9021 15.4759 15.8139 15.5485C15.7366 15.612 15.6638 15.6764 15.6109 15.7625C15.514 15.9201 15.5094 16.106 15.5717 16.2774C16.0517 17.5966 16.8608 18.6224 18.1886 19.1749C18.4012 19.2633 18.6145 19.3662 18.8593 19.3377C19.2692 19.2899 19.402 18.8401 19.6893 18.6052C19.9701 18.3756 20.329 18.3726 20.6314 18.564C20.9339 18.7555 21.2271 18.961 21.5185 19.1687C21.8047 19.3726 22.0897 19.572 22.3535 19.8045C22.6073 20.0281 22.6947 20.3212 22.5518 20.6246C22.2902 21.1801 21.9094 21.6421 21.3604 21.9371C21.2054 22.0203 21.0202 22.0471 20.8454 22.1011C21.0202 22.0471 20.6443 22.0399 20.8454 22.1011Z" fill="white"/>
<path d="M18.005 11.6313C20.4174 11.699 22.3989 13.2999 22.8235 15.6849C22.8958 16.0913 22.9215 16.5067 22.9537 16.9193C22.9673 17.0927 22.869 17.2575 22.6818 17.2599C22.4885 17.2622 22.4015 17.1003 22.3888 16.927C22.3641 16.5837 22.3469 16.2388 22.2995 15.8985C22.0498 14.1014 20.6169 12.6147 18.8281 12.2957C18.5589 12.2476 18.2835 12.235 18.0108 12.2064C17.8384 12.1883 17.6128 12.1779 17.5746 11.9636C17.5426 11.784 17.6942 11.641 17.8653 11.6317C17.9115 11.629 17.9583 11.6312 18.005 11.6313C17.9583 11.6312 20.4175 11.699 18.005 11.6313Z" fill="white"/>
<path d="M21.6711 16.3844C21.6671 16.4146 21.6652 16.4854 21.6474 16.5521C21.5834 16.7942 21.2161 16.8245 21.1316 16.5802C21.1066 16.5077 21.1028 16.4252 21.1027 16.3471C21.1019 15.8363 20.9908 15.3258 20.7331 14.8812C20.4683 14.4242 20.0636 14.0403 19.589 13.8077C19.302 13.6672 18.9916 13.5799 18.6772 13.5279C18.5396 13.505 18.4008 13.4914 18.2626 13.4721C18.0952 13.4488 18.0057 13.3421 18.0137 13.1773C18.0211 13.0226 18.1341 12.9114 18.3025 12.921C18.8562 12.9524 19.3909 13.0722 19.8832 13.3327C20.884 13.8628 21.4558 14.6994 21.6227 15.8166C21.6303 15.8673 21.6423 15.9174 21.6463 15.9682C21.6556 16.0934 21.6616 16.219 21.6711 16.3844C21.6616 16.219 21.6671 16.4145 21.6711 16.3844Z" fill="white"/>
<path d="M20.1708 16.3258C19.969 16.3295 19.861 16.2177 19.8401 16.0328C19.8257 15.9038 19.8141 15.7731 19.7834 15.6474C19.7227 15.4002 19.5914 15.1711 19.3833 15.0196C19.2852 14.9481 19.1739 14.8959 19.0574 14.8623C18.9094 14.8194 18.7556 14.8313 18.608 14.7951C18.4476 14.7557 18.3589 14.6259 18.3841 14.4754C18.407 14.3385 18.5402 14.2316 18.6898 14.2425C19.6252 14.3101 20.2936 14.7936 20.389 15.8947C20.3959 15.9723 20.4038 16.0544 20.3865 16.1289C20.3568 16.2559 20.2626 16.3197 20.1708 16.3258C20.2626 16.3197 19.969 16.3295 20.1708 16.3258Z" fill="white"/>
<path d="M20.8456 22.1007C21.0204 22.0469 20.6445 22.0397 20.8456 22.1007V22.1007Z" fill="white"/>
<path d="M18.0111 11.6321C18.0091 11.6321 18.0071 11.6319 18.005 11.6319C18.0031 11.6318 18.0057 11.6319 18.0111 11.6321Z" fill="white"/>
<path d="M18.0054 11.6318C18.0073 11.6318 18.0093 11.6321 18.0114 11.6321C18.1452 11.6368 20.3227 11.6968 18.0054 11.6318Z" fill="white"/>
<path d="M21.6713 16.3842C21.6618 16.2187 21.6673 16.4142 21.6713 16.3842V16.3842Z" fill="white"/>
<path d="M20.1709 16.3254C20.1741 16.3252 20.177 16.3236 20.18 16.3232C20.1715 16.3232 20.1584 16.3235 20.145 16.324C20.1538 16.3242 20.1617 16.3256 20.1709 16.3254Z" fill="white"/>
<path d="M20.1706 16.3257C20.1615 16.3258 20.1534 16.3245 20.1448 16.3242C20.1011 16.3254 20.0561 16.3278 20.1706 16.3257Z" fill="white"/>
<path d="M20.1801 16.3232C20.1769 16.3236 20.1738 16.3252 20.1709 16.3254C20.1944 16.3239 20.1924 16.3232 20.1801 16.3232Z" fill="white"/>
</svg>
