<svg width="70" height="66" viewBox="0 0 70 66" fill="none" xmlns="http://www.w3.org/2000/svg">
<path d="M70 24.7963V20.2111C70 18.9724 68.9309 17.9642 67.617 17.9642C66.7754 17.9642 65.9844 17.6556 65.3894 17.0957C64.7946 16.5338 64.4666 15.7875 64.4666 14.9944V6.92065C64.4666 5.66332 63.382 4.64062 62.0484 4.64062H59.132C57.7984 4.64062 56.7137 5.66382 56.7137 6.92065V11.6464C56.7137 14.578 54.2341 17.0021 51.1868 17.0504C49.6716 17.0725 48.2318 16.5343 47.1487 15.5297C46.0652 14.5246 45.4686 13.1822 45.4686 11.7496V6.92065C45.4686 5.66332 44.3834 4.64062 43.0499 4.64062H40.1339C38.8004 4.64062 37.7151 5.66382 37.7151 6.92065V9.83414C37.7151 10.3684 38.1745 10.8009 38.7405 10.8009C39.3072 10.8009 39.7659 10.3684 39.7659 9.83414V6.92065C39.7659 6.72981 39.9309 6.57422 40.1339 6.57422H43.0499C43.2528 6.57422 43.4178 6.72981 43.4178 6.92065V11.7496C43.4178 13.7048 44.2322 15.5367 45.7105 16.9079C47.1888 18.279 49.1456 19.0121 51.221 18.984C55.3807 18.9175 58.7645 15.6259 58.7645 11.6464V6.92065C58.7645 6.72981 58.9295 6.57422 59.132 6.57422H62.0484C62.2508 6.57422 62.4158 6.72981 62.4158 6.92065V14.9944C62.4158 16.3032 62.9562 17.5347 63.9395 18.4629C64.9227 19.3883 66.2285 19.8978 67.617 19.8978C67.8002 19.8978 67.9492 20.0383 67.9492 20.2111V24.2056L51.0906 31.8319L34.2331 24.2061V20.2111C34.2331 20.1044 34.2859 20.0318 34.3324 19.9881C34.3682 19.9543 34.4456 19.8978 34.5652 19.8978C37.4332 19.8978 39.7659 17.6984 39.7659 14.9944V13.7013C39.7659 13.1675 39.3072 12.7345 38.7405 12.7345C38.1745 12.7345 37.7151 13.1675 37.7151 13.7013V14.9944C37.7151 16.6319 36.302 17.9642 34.5652 17.9642C33.9265 17.9642 33.3274 18.1985 32.8803 18.6224C32.4301 19.0469 32.1824 19.6114 32.1824 20.2111V24.7812C32.1818 24.8029 32.1818 24.8245 32.1824 24.8462V40.9106L26.909 43.8905C26.1662 43.4887 25.3159 43.2723 24.4534 43.2723H18.3352V26.5708H24.4534C27.1712 26.5708 29.3822 24.4861 29.3822 21.9236C29.3822 19.3611 27.1712 17.2764 24.4534 17.2764H23.3795V16.2205C23.3795 14.1284 21.5738 12.4264 19.3547 12.4264H18.3352V10.5315C18.3352 9.42979 17.3846 8.53349 16.2161 8.53349H13.1661C11.9976 8.53349 11.047 9.42979 11.047 10.5315V12.4264H10.0275C7.80846 12.4264 6.0028 14.1284 6.0028 16.2205V17.2764H4.92882C4.47861 17.2764 4.03267 17.3339 3.60276 17.4467C3.05748 17.5902 2.73811 18.1234 2.89032 18.638C3.04253 19.1521 3.60756 19.4522 4.1539 19.3093C4.40437 19.2433 4.66499 19.21 4.92882 19.21H24.4534C26.0407 19.21 27.3314 20.4271 27.3314 21.9236C27.3314 23.4197 26.0407 24.6367 24.4534 24.6367H4.92882C3.3416 24.6367 2.05078 23.4197 2.05078 21.9236C2.05078 21.7701 2.06467 21.6155 2.09137 21.4655C2.1859 20.9388 1.80992 20.4396 1.25183 20.3506C0.693741 20.261 0.163956 20.616 0.0694274 21.1427C0.0234985 21.3995 0 21.6623 0 21.9236C0 24.4861 2.211 26.5708 4.92882 26.5708H11.047V43.2723H4.92882C2.211 43.2723 0 45.3568 0 47.9194C0 49.159 0.512161 50.3263 1.44409 51.2065C2.37602 52.0837 3.61397 52.5666 4.92882 52.5666H6.00335V53.622C6.00335 55.7147 7.80846 57.4172 10.0269 57.4172H11.047V59.312C11.047 60.4137 11.9976 61.31 13.1661 61.31H16.2161C17.3846 61.31 18.3352 60.4137 18.3352 59.312V57.4172H18.3758C18.5879 57.6795 18.8212 57.9288 19.076 58.1629C20.4534 59.4313 22.2398 60.0769 24.0603 60.0769H61.0284C63.187 60.0769 64.9436 58.4207 64.9436 56.3849V50.6586H65.491C67.9775 50.6586 70 48.7512 70 46.4073V24.8295C70 24.8185 70 24.8074 70 24.7963ZM13.0978 10.5315C13.0978 10.4963 13.1282 10.4671 13.1661 10.4671H16.2161C16.2541 10.4671 16.2844 10.4963 16.2844 10.5315V12.4264H13.0978V10.5315ZM8.05358 17.2764V16.2205C8.05358 15.1943 8.93906 14.3599 10.0275 14.3599H12.051H12.0724H12.0932H17.2885H17.3098H17.3313H19.3547C20.4431 14.3599 21.3287 15.1943 21.3287 16.2205V17.2764H8.05358ZM43.0012 38.7273C43.4595 38.7273 43.8718 39.0002 44.0282 39.406C45.2186 42.5028 48.3659 44.5834 51.8587 44.5834C55.4261 44.5834 58.5952 42.4439 59.7439 39.2596C59.8587 38.9413 60.1761 38.7273 60.5328 38.7273H61.1699C62.1199 38.7273 62.8928 39.4559 62.8928 40.3517V52.5314H48.6965L45.3329 47.9874C45.0093 47.5498 44.3695 47.4425 43.9054 47.7482C43.4413 48.0533 43.3275 48.6561 43.6512 49.0942L46.1955 52.5314H43.7351L37.4011 43.9726L39.1363 42.9918L41.3051 45.9229C41.5048 46.1923 41.8231 46.3368 42.1472 46.3368C42.3497 46.3368 42.5543 46.2803 42.7327 46.1625C43.1972 45.8569 43.311 45.2541 42.9874 44.8166L40.8047 41.8668C41.3846 41.2505 41.7216 40.4438 41.7216 39.6019V38.7273H43.0012ZM38.8447 52.5314L33.9527 45.9213L35.6377 44.9692L41.2341 52.5314H38.8447ZM33.8827 52.5314L30.4541 47.8987L32.1892 46.9184L36.3437 52.5319H33.8827V52.5314ZM24.3861 47.5704C24.4385 47.6601 24.4984 47.7466 24.5651 47.8287C25.2481 48.6666 26.2831 49.1153 27.3368 49.1153C27.7859 49.1153 28.2388 49.0338 28.6692 48.8655L31.3823 52.5314H19.0482C19.3003 51.1723 20.1708 49.9527 21.445 49.2332L24.3861 47.5704ZM39.6709 38.9337V39.6025C39.6709 40.1105 39.3868 40.5883 38.9285 40.8548C38.9104 40.8648 38.8922 40.8749 38.8746 40.886L35.432 42.8312C35.4144 42.8407 35.3968 42.8508 35.3791 42.8613L31.967 44.7894C31.9607 44.7929 31.9538 44.797 31.9473 44.801L28.0764 46.9884C27.4479 47.3438 26.6377 47.1984 26.1907 46.6505C26.1853 46.644 26.1688 46.6233 26.1758 46.5896C26.1816 46.5598 26.2004 46.5462 26.2099 46.5402L27.3844 45.8766C27.3978 45.8695 27.4116 45.8614 27.425 45.8534L39.6249 38.9584C39.6404 38.9498 39.6554 38.9418 39.6709 38.9337ZM13.0978 26.5708H16.2844V43.2723H13.0978V26.5708ZM8.05413 53.6224V52.5666H13.847C14.4132 52.5666 14.8724 52.1341 14.8724 51.5998C14.8724 51.066 14.4132 50.633 13.847 50.633H4.92882C4.16084 50.633 3.43772 50.351 2.89406 49.8394C2.35039 49.3253 2.05078 48.6434 2.05078 47.9194C2.05078 46.4234 3.3416 45.2059 4.92882 45.2059H24.4534C24.4951 45.2059 24.5362 45.2068 24.5774 45.2083L20.3909 47.5744C18.2514 48.7834 16.9226 50.9951 16.9226 53.3471C16.9226 53.9896 17.0188 54.6114 17.1977 55.2001C17.1999 55.2076 17.2025 55.2152 17.2047 55.2228C17.2063 55.2278 17.2078 55.2329 17.2095 55.2379C17.2346 55.3204 17.2618 55.402 17.2907 55.4836H10.0269C8.93905 55.4836 8.05413 54.6487 8.05413 53.6224ZM16.2844 59.312C16.2844 59.3473 16.2535 59.3764 16.2161 59.3764H13.1661C13.1287 59.3764 13.0978 59.3473 13.0978 59.312V57.4172H16.2844V59.312ZM62.8928 56.3849C62.8928 57.3548 62.0564 58.1433 61.0278 58.1433C37.3755 58.1433 24.0337 58.1443 23.9247 58.1418C21.5876 58.0839 19.6384 56.5325 19.1129 54.465H33.3225C33.3316 54.4655 33.3401 54.4655 33.3493 54.4655C33.3583 54.4655 33.3674 54.4655 33.3765 54.465H38.284C38.293 54.4655 38.3015 54.4655 38.3106 54.4655C38.3197 54.4655 38.3288 54.4655 38.3379 54.465H43.1743C43.1833 54.4655 43.1925 54.4655 43.2009 54.4655C43.2101 54.4655 43.2191 54.4655 43.2283 54.465H48.1357C48.1448 54.4655 48.1533 54.4655 48.1623 54.4655C48.1715 54.4655 48.1805 54.4655 48.1897 54.465H62.8928V56.3849ZM65.491 48.725H64.9436V40.3517C64.9436 38.3898 63.2506 36.7937 61.1699 36.7937H60.5328C59.2975 36.7937 58.2005 37.5344 57.8021 38.6367C56.9364 41.037 54.5476 42.6493 51.8587 42.6493C49.2252 42.6493 46.8534 41.0813 45.9557 38.7474C45.5066 37.5788 44.3193 36.7937 43.0008 36.7937C40.715 36.849 39.8439 36.5822 38.5707 37.3002L34.2326 39.7515V26.3508L50.6468 33.776C50.7873 33.8394 50.9389 33.8712 51.0906 33.8712C51.2423 33.8712 51.3939 33.8394 51.5339 33.776L67.9487 26.3502V46.4073C67.9492 47.6853 66.8464 48.725 65.491 48.725Z" fill="white"/>
<path d="M60.0195 48.791C60.0195 48.2571 59.5604 47.8242 58.9941 47.8242C58.4279 47.8242 57.9688 48.2571 57.9688 48.791V48.7948C57.9688 49.3287 58.4279 49.7597 58.9941 49.7597C59.5604 49.7597 60.0195 49.3249 60.0195 48.791Z" fill="white"/>
<path d="M42.9297 21.5918C42.9297 21.0579 42.4706 20.625 41.9043 20.625C41.338 20.625 40.8789 21.0579 40.8789 21.5918V21.5955C40.8789 22.1295 41.338 22.5605 41.9043 22.5605C42.4706 22.5605 42.9297 22.1257 42.9297 21.5918Z" fill="white"/>
<path d="M50.0214 21.6749H49.3325C48.766 21.6749 48.3071 22.1074 48.3071 22.6417C48.3071 23.1754 48.766 23.6085 49.3325 23.6085H49.5494V26.9525H49.4244C48.8577 26.9525 48.399 27.385 48.399 27.9193C48.399 28.4535 48.8577 28.8861 49.4244 28.8861H51.7251C52.2918 28.8861 52.7505 28.4535 52.7505 27.9193C52.7505 27.385 52.2918 26.9525 51.7251 26.9525H51.6001V23.1633C51.6001 22.3425 50.8919 21.6749 50.0214 21.6749Z" fill="white"/>
</svg>
